<svg width="20" height="20" viewBox="0 0 20 20" fill="none" xmlns="http://www.w3.org/2000/svg">
<path fill-rule="evenodd" clip-rule="evenodd" d="M16.2004 3.79297C15.3914 2.98362 14.4304 2.34227 13.3726 1.90584C12.3147 1.46941 11.181 1.24652 10.0367 1.25C5.23438 1.25 1.325 5.13985 1.32305 9.92188C1.32092 11.4446 1.7223 12.9407 2.48633 14.2578L1.25 18.75L5.86914 17.5441C7.14774 18.2368 8.57903 18.5993 10.0332 18.5988H10.0367C14.8387 18.5988 18.7477 14.7086 18.75 9.92696C18.7529 8.78655 18.529 7.65695 18.0913 6.60388C17.6536 5.55082 17.0108 4.59532 16.2004 3.79297V3.79297ZM10.0367 17.1352H10.0336C8.73726 17.1355 7.46449 16.7886 6.34766 16.1305L6.0832 15.9742L3.34219 16.6898L4.07383 14.0301L3.90156 13.7566C3.17671 12.6091 2.79267 11.2792 2.79414 9.92188C2.79414 5.94805 6.04453 2.71485 10.0395 2.71485C11.9559 2.71142 13.7951 3.46935 15.1528 4.82192C16.5104 6.1745 17.2752 8.01094 17.2789 9.92735C17.2773 13.9016 14.0285 17.1352 10.0367 17.1352V17.1352ZM14.009 11.7371C13.7914 11.6285 12.7199 11.1043 12.5215 11.032C12.323 10.9598 12.1766 10.9234 12.0316 11.1406C11.8867 11.3578 11.4691 11.8438 11.3422 11.9902C11.2152 12.1367 11.0883 12.1527 10.8707 12.0441C10.6531 11.9355 9.95117 11.707 9.11953 10.9688C8.47227 10.3941 8.03555 9.68477 7.90859 9.46797C7.78164 9.25117 7.89492 9.1336 8.00391 9.02578C8.10195 8.92852 8.22148 8.77266 8.33047 8.6461C8.43945 8.51953 8.47578 8.42891 8.54805 8.28438C8.62031 8.13985 8.58437 8.01328 8.53008 7.90508C8.47578 7.79688 8.04023 6.73008 7.85898 6.2961C7.68203 5.87344 7.50273 5.93086 7.36914 5.92422C7.24219 5.91797 7.0957 5.91641 6.95156 5.91641C6.84137 5.91928 6.73295 5.94483 6.63308 5.99147C6.53321 6.03812 6.44402 6.10485 6.37109 6.1875C6.17148 6.40469 5.60898 6.92969 5.60898 7.99531C5.60898 9.06094 6.39023 10.0922 6.49805 10.2367C6.60586 10.3813 8.0332 12.5699 10.2172 13.5086C10.6227 13.6823 11.0371 13.8346 11.4586 13.9648C11.9801 14.1297 12.4547 14.1066 12.8297 14.0508C13.248 13.9887 14.1188 13.5266 14.2996 13.0203C14.4805 12.5141 14.4809 12.0805 14.4266 11.9902C14.3723 11.9 14.227 11.8453 14.009 11.7371V11.7371Z" fill="white"/>
</svg>
