<svg width="28" height="28" viewBox="0 0 28 28" fill="none" xmlns="http://www.w3.org/2000/svg">
<path fill-rule="evenodd" clip-rule="evenodd" d="M22.6805 5.31015C21.548 4.17706 20.2025 3.27917 18.7216 2.66817C17.2406 2.05717 15.6534 1.74512 14.0514 1.75C7.32812 1.75 1.855 7.19578 1.85227 13.8906C1.84929 16.0224 2.41122 18.1169 3.48086 19.9609L1.75 26.25L8.2168 24.5618C10.0068 25.5315 12.0106 26.0391 14.0465 26.0384H14.0514C20.7741 26.0384 26.2467 20.592 26.25 13.8977C26.2541 12.3012 25.9406 10.7197 25.3278 9.24543C24.715 7.77114 23.8151 6.43343 22.6805 5.31015ZM14.0514 23.9892H14.047C12.2322 23.9897 10.4503 23.5041 8.88672 22.5827L8.51648 22.3639L4.67906 23.3658L5.70336 19.6421L5.46219 19.2593C4.4474 17.6527 3.90974 15.7909 3.9118 13.8906C3.9118 8.32726 8.46234 3.80078 14.0552 3.80078C16.7382 3.79599 19.3132 4.85708 21.2139 6.75069C23.1146 8.64429 24.1853 11.2153 24.1905 13.8983C24.1883 19.4622 19.6399 23.9892 14.0514 23.9892ZM19.6126 16.4319C19.308 16.2799 17.8079 15.546 17.5301 15.4448C17.2523 15.3437 17.0472 15.2928 16.8443 15.5969C16.6414 15.9009 16.0568 16.5812 15.8791 16.7863C15.7013 16.9914 15.5236 17.0138 15.219 16.8618C14.9144 16.7098 13.9316 16.3898 12.7673 15.3562C11.8612 14.5518 11.2498 13.5587 11.072 13.2552C10.8943 12.9516 11.0529 12.787 11.2055 12.6361C11.3427 12.4999 11.5101 12.2817 11.6627 12.1045C11.8152 11.9273 11.8661 11.8005 11.9673 11.5981C12.0684 11.3958 12.0181 11.2186 11.9421 11.0671C11.8661 10.9156 11.2563 9.4221 11.0026 8.81453C10.7548 8.22281 10.5038 8.3032 10.3168 8.2939C10.1391 8.28515 9.93398 8.28296 9.73219 8.28296C9.57792 8.28698 9.42614 8.32275 9.28631 8.38805C9.14649 8.45336 9.02163 8.54678 8.91953 8.66249C8.64008 8.96656 7.85258 9.70156 7.85258 11.1934C7.85258 12.6853 8.94633 14.1291 9.09727 14.3314C9.2482 14.5337 11.2465 17.5979 14.3041 18.912C14.8718 19.1552 15.4519 19.3684 16.042 19.5508C16.7721 19.7816 17.4366 19.7493 17.9616 19.6711C18.5473 19.5841 19.7663 18.9372 20.0195 18.2284C20.2727 17.5197 20.2732 16.9127 20.1972 16.7863C20.1212 16.66 19.9177 16.5834 19.6126 16.4319Z" fill="#9F896E"/>
</svg>
